<svg width="296" height="264" viewBox="0 0 296 264" fill="none" xmlns="http://www.w3.org/2000/svg">
<path d="M251.5 160C251.5 217.159 204.94 263.5 147.5 263.5C90.0601 263.5 43.5 217.159 43.5 160C43.5 102.841 90.0601 56.5 147.5 56.5C204.94 56.5 251.5 102.841 251.5 160Z" stroke="#303030"/>
<circle cx="148.5" cy="51.5" r="51.5" fill="#00007C"/>
<circle cx="51.5" cy="202.5" r="51.5" fill="#00007C"/>
<circle cx="244.5" cy="202.5" r="51.5" fill="#303030"/>
<path d="M112.756 56V43.2031H116.368C117.481 43.2031 118.466 43.4492 119.321 43.9414C120.177 44.4336 120.836 45.1338 121.299 46.042C121.768 46.9502 122.005 47.9932 122.011 49.1709V49.9883C122.011 51.1953 121.776 52.2529 121.308 53.1611C120.845 54.0693 120.18 54.7666 119.312 55.2529C118.451 55.7393 117.446 55.9883 116.298 56H112.756ZM114.443 44.5918V54.6201H116.219C117.52 54.6201 118.53 54.2158 119.251 53.4072C119.978 52.5986 120.341 51.4473 120.341 49.9531V49.2061C120.341 47.7529 119.998 46.625 119.312 45.8223C118.633 45.0137 117.666 44.6035 116.412 44.5918H114.443ZM126.379 56H124.691V43.2031H126.379V56ZM133.243 50.2959C131.796 49.8799 130.741 49.3701 130.079 48.7666C129.423 48.1572 129.095 47.4072 129.095 46.5166C129.095 45.5088 129.496 44.6768 130.299 44.0205C131.107 43.3584 132.156 43.0273 133.445 43.0273C134.324 43.0273 135.106 43.1973 135.792 43.5371C136.483 43.877 137.017 44.3457 137.392 44.9434C137.772 45.541 137.963 46.1943 137.963 46.9033H136.267C136.267 46.1299 136.021 45.5234 135.528 45.084C135.036 44.6387 134.342 44.416 133.445 44.416C132.613 44.416 131.963 44.6006 131.494 44.9697C131.031 45.333 130.8 45.8398 130.8 46.4902C130.8 47.0117 131.02 47.4541 131.459 47.8174C131.904 48.1748 132.657 48.5029 133.718 48.8018C134.784 49.1006 135.616 49.4316 136.214 49.7949C136.817 50.1523 137.263 50.5713 137.55 51.0518C137.843 51.5322 137.989 52.0977 137.989 52.748C137.989 53.7852 137.585 54.6172 136.776 55.2441C135.968 55.8652 134.887 56.1758 133.533 56.1758C132.654 56.1758 131.834 56.0088 131.072 55.6748C130.311 55.335 129.722 54.8721 129.306 54.2861C128.896 53.7002 128.69 53.0352 128.69 52.291H130.387C130.387 53.0645 130.671 53.6768 131.239 54.1279C131.813 54.5732 132.578 54.7959 133.533 54.7959C134.424 54.7959 135.106 54.6143 135.581 54.251C136.056 53.8877 136.293 53.3926 136.293 52.7656C136.293 52.1387 136.073 51.6553 135.634 51.3154C135.194 50.9697 134.397 50.6299 133.243 50.2959ZM147.394 50.085H141.848V54.6201H148.29V56H140.16V43.2031H148.202V44.5918H141.848V48.7051H147.394V50.085ZM160.226 56H158.529L152.087 46.1387V56H150.391V43.2031H152.087L158.547 53.1084V43.2031H160.226V56ZM158.406 40.0566C158.406 40.6895 158.225 41.2021 157.861 41.5947C157.504 41.9873 157.056 42.1836 156.517 42.1836C156.276 42.1836 156.068 42.1543 155.893 42.0957C155.717 42.0371 155.485 41.917 155.198 41.7354C154.917 41.5537 154.712 41.4453 154.583 41.4102C154.46 41.3691 154.316 41.3486 154.152 41.3486C153.912 41.3486 153.707 41.4424 153.537 41.6299C153.367 41.8115 153.282 42.0459 153.282 42.333L152.192 42.2715C152.192 41.6445 152.368 41.126 152.72 40.7158C153.077 40.3057 153.528 40.1006 154.073 40.1006C154.278 40.1006 154.463 40.1299 154.627 40.1885C154.791 40.2471 155.014 40.3613 155.295 40.5312C155.576 40.7012 155.79 40.8125 155.937 40.8652C156.089 40.918 156.256 40.9443 156.438 40.9443C156.689 40.9443 156.897 40.8447 157.062 40.6455C157.231 40.4463 157.316 40.2148 157.316 39.9512L158.406 40.0566ZM170.447 52.6602H165.086L163.882 56H162.142L167.028 43.2031H168.505L173.4 56H171.669L170.447 52.6602ZM165.596 51.2715H169.946L167.767 45.2861L165.596 51.2715ZM179.816 50.8232H176.811V56H175.114V43.2031H179.351C180.792 43.2031 181.899 43.5312 182.673 44.1875C183.452 44.8438 183.842 45.7988 183.842 47.0527C183.842 47.8496 183.625 48.5439 183.191 49.1357C182.764 49.7275 182.166 50.1699 181.398 50.4629L184.404 55.8945V56H182.594L179.816 50.8232ZM176.811 49.4434H179.403C180.241 49.4434 180.906 49.2266 181.398 48.793C181.896 48.3594 182.146 47.7793 182.146 47.0527C182.146 46.2617 181.908 45.6553 181.434 45.2334C180.965 44.8115 180.285 44.5977 179.395 44.5918H176.811V49.4434Z" fill="white"/>
<path d="M17.6533 205.66H12.292L11.0879 209H9.34766L14.2344 196.203H15.7109L20.6064 209H18.875L17.6533 205.66ZM12.8018 204.271H17.1523L14.9727 198.286L12.8018 204.271ZM32.1641 209H30.4678L24.0254 199.139V209H22.3291V196.203H24.0254L30.4854 206.108V196.203H32.1641V209ZM42.3857 205.66H37.0244L35.8203 209H34.0801L38.9668 196.203H40.4434L45.3389 209H43.6074L42.3857 205.66ZM37.5342 204.271H41.8848L39.7051 198.286L37.5342 204.271ZM48.7578 207.62H54.8223V209H47.0615V196.203H48.7578V207.62ZM58.5576 209H56.8701V196.203H58.5576V209ZM62.917 207.62H70.2383V209H60.9219V207.734L67.9355 197.592H61.0361V196.203H69.957V197.442L62.917 207.62ZM79.6162 205.66H74.2549L73.0508 209H71.3105L76.1973 196.203H77.6738L82.5693 209H80.8379L79.6162 205.66ZM74.7646 204.271H79.1152L76.9355 198.286L74.7646 204.271ZM88.9854 203.823H85.9795V209H84.2832V196.203H88.5195C89.9609 196.203 91.0684 196.531 91.8418 197.188C92.6211 197.844 93.0107 198.799 93.0107 200.053C93.0107 200.85 92.7939 201.544 92.3604 202.136C91.9326 202.728 91.335 203.17 90.5674 203.463L93.5732 208.895V209H91.7627L88.9854 203.823ZM85.9795 202.443H88.5723C89.4102 202.443 90.0752 202.227 90.5674 201.793C91.0654 201.359 91.3145 200.779 91.3145 200.053C91.3145 199.262 91.0771 198.655 90.6025 198.233C90.1338 197.812 89.4541 197.598 88.5635 197.592H85.9795V202.443Z" fill="white"/>
<path d="M214.933 206.759L218.589 196.203H220.435L215.688 209H214.194L209.457 196.203H211.294L214.933 206.759ZM228.556 205.66H223.194L221.99 209H220.25L225.137 196.203H226.613L231.509 209H229.777L228.556 205.66ZM223.704 204.271H228.055L225.875 198.286L223.704 204.271ZM234.928 207.62H240.992V209H233.231V196.203H234.928V207.62ZM244.728 209H243.04V196.203H244.728V209ZM247.821 209V196.203H251.434C252.547 196.203 253.531 196.449 254.387 196.941C255.242 197.434 255.901 198.134 256.364 199.042C256.833 199.95 257.07 200.993 257.076 202.171V202.988C257.076 204.195 256.842 205.253 256.373 206.161C255.91 207.069 255.245 207.767 254.378 208.253C253.517 208.739 252.512 208.988 251.363 209H247.821ZM249.509 197.592V207.62H251.284C252.585 207.62 253.596 207.216 254.316 206.407C255.043 205.599 255.406 204.447 255.406 202.953V202.206C255.406 200.753 255.063 199.625 254.378 198.822C253.698 198.014 252.731 197.604 251.478 197.592H249.509ZM266.507 205.66H261.146L259.941 209H258.201L263.088 196.203H264.564L269.46 209H267.729L266.507 205.66ZM261.655 204.271H266.006L263.826 198.286L261.655 204.271ZM275.876 203.823H272.87V209H271.174V196.203H275.41C276.852 196.203 277.959 196.531 278.732 197.188C279.512 197.844 279.901 198.799 279.901 200.053C279.901 200.85 279.685 201.544 279.251 202.136C278.823 202.728 278.226 203.17 277.458 203.463L280.464 208.895V209H278.653L275.876 203.823ZM272.87 202.443H275.463C276.301 202.443 276.966 202.227 277.458 201.793C277.956 201.359 278.205 200.779 278.205 200.053C278.205 199.262 277.968 198.655 277.493 198.233C277.024 197.812 276.345 197.598 275.454 197.592H272.87V202.443Z" fill="white"/>
</svg>
